<?xml version="1.0" standalone="no"?>
<!DOCTYPE svg PUBLIC "-//W3C//DTD SVG 20010904//EN"
 "http://www.w3.org/TR/2001/REC-SVG-20010904/DTD/svg10.dtd">
<svg version="1.0" xmlns="http://www.w3.org/2000/svg"
 width="1024.000000pt" height="1024.000000pt" viewBox="0 0 1024.000000 1024.000000"
 preserveAspectRatio="xMidYMid meet">
<metadata>
Created by potrace 1.11, written by Peter Selinger 2001-2013
</metadata>
<g transform="translate(0.000000,1024.000000) scale(0.100000,-0.100000)"
fill="#000000" stroke="none">
<path d="M2234 7795 c4 -55 8 -125 11 -155 2 -30 6 -98 10 -150 3 -52 7 -122
10 -155 2 -33 7 -100 10 -150 3 -49 8 -117 10 -150 2 -33 7 -98 10 -145 3 -47
7 -116 10 -155 7 -93 11 -165 30 -445 16 -245 22 -331 30 -440 3 -36 7 -108
10 -160 3 -52 7 -120 10 -150 3 -30 7 -98 10 -150 3 -52 7 -115 10 -140 2 -25
7 -90 10 -145 5 -97 12 -193 20 -305 3 -30 7 -107 11 -170 3 -63 8 -123 9
-132 2 -10 7 -77 10 -150 4 -73 8 -144 10 -158 2 -14 7 -74 10 -135 4 -60 8
-130 10 -155 2 -25 7 -90 10 -145 3 -55 8 -125 10 -155 2 -30 7 -95 10 -145 3
-49 8 -112 10 -140 2 -27 7 -99 10 -160 3 -60 8 -128 10 -150 2 -22 7 -85 11
-140 3 -55 7 -100 8 -101 1 -1 838 -210 2074 -517 l492 -123 1297 326 c982
247 1297 329 1298 341 2 8 6 75 10 149 4 74 9 142 10 150 2 8 6 78 9 155 4 77
9 151 11 165 2 14 7 81 10 150 3 69 8 145 10 170 2 25 7 90 10 145 10 171 14
247 20 325 2 41 7 122 11 180 3 58 7 121 9 140 2 19 6 98 10 175 4 77 8 147
10 156 2 8 6 71 10 140 3 68 8 143 10 166 2 24 6 96 9 160 4 65 9 141 11 168
2 28 7 95 10 150 8 127 13 218 20 325 3 47 7 121 10 165 3 44 7 112 10 150 2
39 7 113 10 165 3 52 7 124 10 160 3 36 7 110 10 165 3 55 7 127 10 160 2 33
7 103 10 155 3 52 7 124 10 160 2 36 7 110 10 165 3 55 8 123 10 150 2 28 7
106 10 175 4 69 9 133 11 143 3 10 0 18 -8 18 -7 1 -1320 2 -2917 3 l-2904 1
7 -100z"/>
</g>
</svg>
